<?xml version="1.0" encoding="utf-8"?>
<!-- Generator: Adobe Illustrator 22.1.0, SVG Export Plug-In . SVG Version: 6.00 Build 0)  -->
<svg version="1.1" baseProfile="tiny" id="Layer_1" xmlns="http://www.w3.org/2000/svg" xmlns:xlink="http://www.w3.org/1999/xlink"
	 x="0px" y="0px" viewBox="0 0 1024 768" xml:space="preserve">
<path fill="none" stroke="#000000" stroke-miterlimit="10" d="M239.7,205c-42.2,44-112.1,45.4-156.1,3.2
	C48.4,174.4,47.2,118.5,81,83.3c27-28.2,71.8-29.1,99.9-2.1c22.5,21.6,23.3,57.4,1.7,79.9c-17.3,18-45.9,18.6-63.9,1.3
	c-14.4-13.8-14.9-36.7-1.1-51.2c11.1-11.5,29.4-11.9,40.9-0.8c9.2,8.9,9.5,23.5,0.7,32.7c-7.1,7.4-18.8,7.6-26.2,0.5
	c-5.9-5.7-6.1-15-0.4-21"/>
<path fill="none" stroke="#000000" stroke-miterlimit="10" d="M528.1,165.5c0-61-49.4-110.4-110.4-110.4
	c-48.8,0-88.3,39.6-88.3,88.3c0,39,31.6,70.7,70.7,70.7c31.2,0,56.5-25.3,56.5-56.5c0-25-20.2-45.2-45.2-45.2
	c-20,0-36.2,16.2-36.2,36.2c0,16,13,28.9,28.9,28.9c12.8,0,23.2-10.4,23.2-23.2c0-10.2-8.3-18.5-18.5-18.5
	c-8.2,0-14.8,6.6-14.8,14.8c0,6.5,5.3,11.9,11.9,11.9c5.2,0,9.5-4.2,9.5-9.5c0-4.2-3.4-7.6-7.6-7.6c-3.4,0-6.1,2.7-6.1,6.1
	c0,2.7,2.2,4.9,4.9,4.9c2.1,0,3.9-1.7,3.9-3.9c0-1.7-1.4-3.1-3.1-3.1c-1.4,0-2.5,1.1-2.5,2.5c0,1.1,0.9,2,2,2c0.9,0,1.6-0.7,1.6-1.6
	c0-0.7-0.6-1.3-1.3-1.3"/>
</svg>
