<?xml version="1.0" encoding="utf-8"?>
<!-- Generator: Adobe Illustrator 22.1.0, SVG Export Plug-In . SVG Version: 6.00 Build 0)  -->
<svg version="1.1" id="Layer_1" xmlns="http://www.w3.org/2000/svg" xmlns:xlink="http://www.w3.org/1999/xlink" x="0px" y="0px"
	 viewBox="0 0 1280 720" style="enable-background:new 0 0 1280 720;" xml:space="preserve">
<g>
	<path d="M181.9,350c0-44.4,15-70.4,48.7-70.4s48.7,25.9,48.7,70.4c0,44.4-15,70.4-48.7,70.4S181.9,394.4,181.9,350z M259.3,361.3
		v-22.6c0-26.1-8-43.1-28.7-43.1s-28.7,17-28.7,43.1v22.6c0,26.1,8,43.1,28.7,43.1S259.3,387.4,259.3,361.3z"/>
	<path d="M306.1,418V281.9h50.1c25.5,0,39.4,15,39.4,40s-13.8,40-39.4,40H325V418H306.1z M325,345.9h29.4c13.6,0,21.2-6.8,21.2-19.3
		v-9.4c0-12.5-7.6-19.3-21.2-19.3H325V345.9z"/>
	<path d="M423.2,418V281.9h84.4v16.2h-65.5V341h63.4v16.2h-63.4v44.6h65.5V418H423.2z"/>
	<path d="M556.2,307.9h-1.6V418h-16.8V281.9h25.3l43.7,110.1h1.6V281.9h16.8V418h-25.3L556.2,307.9z"/>
	<path d="M675.9,418H657V281.9h50.1c25.5,0,39.4,15,39.4,40c0,21.2-11.3,35.5-31.6,38L748,418h-21.1l-31-56.7h-20.1V418z
		 M705.5,345.9c13.6,0,21.1-6.8,21.1-19.3v-9.4c0-12.5-7.4-19.3-21.1-19.3h-29.6v48H705.5z"/>
	<path d="M790.1,307.9h-1.6V418h-16.8V281.9h25.3l43.7,110.1h1.6V281.9h16.8V418h-25.3L790.1,307.9z"/>
	<path d="M891.3,281.9h39.2c33.7,0,50.3,23.6,50.3,68c0,44.4-16.6,68-50.3,68h-39.2V281.9z M929.5,402c20.7,0,31.4-15,31.4-41.1V339
		c0-26.1-10.7-41.1-31.4-41.1H910V402H929.5z"/>
	<path d="M1026.7,418h-18.9V281.9h50.1c25.5,0,39.4,15,39.4,40c0,21.2-11.3,35.5-31.6,38l33.1,58.1h-21.1l-31-56.7h-20.1V418z
		 M1056.4,345.9c13.6,0,21.1-6.8,21.1-19.3v-9.4c0-12.5-7.4-19.3-21.1-19.3h-29.6v48H1056.4z"/>
</g>
<g>
</g>
<g>
</g>
<g>
</g>
<g>
</g>
<g>
</g>
<g>
</g>
<g>
</g>
<g>
</g>
<g>
</g>
<g>
</g>
<g>
</g>
<g>
</g>
<g>
</g>
<g>
</g>
<g>
</g>
</svg>
