<?xml version="1.0" encoding="utf-8"?>
<!-- Generator: Adobe Illustrator 22.1.0, SVG Export Plug-In . SVG Version: 6.00 Build 0)  -->
<svg version="1.1" id="Layer_1" xmlns="http://www.w3.org/2000/svg" xmlns:xlink="http://www.w3.org/1999/xlink" x="0px" y="0px"
	 viewBox="0 0 1280 720" style="enable-background:new 0 0 1280 720;" xml:space="preserve">
<path d="M16,346.5c0-60.3,20.4-95.6,66.1-95.6s66.1,35.2,66.1,95.6c0,60.3-20.4,95.6-66.1,95.6S16,406.8,16,346.5z"/>
<path d="M184.7,438.8V254h68c34.6,0,53.5,20.4,53.5,54.3s-18.7,54.3-53.5,54.3h-42.4v76.2H184.7z"/>
<path d="M343.8,438.8V254h114.6v22h-89v58.3h86.1v22h-86.1v60.6h89v22H343.8z"/>
<path d="M524.4,289.3h-2.2v149.5h-22.8V254h34.4l59.4,149.5h2.2V254h22.8v184.9h-34.4L524.4,289.3z"/>
<path d="M687,438.8h-25.7V254h68c34.6,0,53.5,20.4,53.5,54.3c0,28.8-15.3,48.2-42.9,51.6l45,78.9h-28.7l-42.1-77h-27.3v77H687z
	 M727.2,340.9"/>
<path d="M842.1,289.3h-2.2v149.5h-22.8V254h34.4l59.4,149.5h2.2V254h22.8v184.9h-34.4L842.1,289.3z"/>
<path d="M979.6,254h53.2c45.8,0,68.3,32.1,68.3,92.4s-22.5,92.4-68.3,92.4h-53.2V254z"/>
<path d="M1163.5,438.8h-25.7V254h68c34.6,0,53.5,20.4,53.5,54.3c0,28.8-15.3,48.2-42.9,51.6l45,78.9h-28.7l-42.1-77h-27.3v77H1163.5
	z"/>
</svg>
